<svg xmlns="http://www.w3.org/2000/svg" xmlns:xlink="http://www.w3.org/1999/xlink" width="1080" zoomAndPan="magnify" viewBox="0 0 810 809.999993" height="1080" preserveAspectRatio="xMidYMid meet" version="1.0"><defs><clipPath id="629fac5697"><path d="M 204 27.347656 L 665 27.347656 L 665 782.597656 L 204 782.597656 Z M 204 27.347656 " clip-rule="nonzero"/></clipPath></defs><g clip-path="url(#629fac5697)"><path fill="#171b37" d="M 395.074219 716.34375 L 396.40625 723.664062 L 396.40625 724.996094 Z M 346.167969 687.734375 L 348.496094 692.722656 L 349.828125 692.390625 Z M 404.390625 686.738281 L 405.386719 695.386719 L 411.375 699.710938 Z M 364.132812 639.496094 L 360.476562 638.496094 L 363.46875 639.828125 L 364.136719 639.492188 Z M 327.207031 629.515625 L 318.222656 634.835938 L 320.550781 637.164062 Z M 309.90625 623.191406 L 309.238281 625.855469 L 312.234375 626.519531 Z M 339.183594 629.847656 L 353.820312 638.164062 L 356.484375 635.835938 Z M 225.734375 336.746094 L 225.402344 337.082031 Z M 261.332031 338.410156 L 261 337.414062 L 261 338.742188 Z M 453.296875 85.898438 L 440.320312 82.574219 L 297.929688 43.316406 L 245.03125 27.347656 L 245.03125 28.675781 L 242.039062 61.613281 L 228.0625 100.539062 L 204.777344 129.480469 L 204.109375 144.121094 L 215.421875 164.414062 L 221.078125 191.03125 L 213.09375 212.652344 L 214.425781 234.277344 L 210.433594 243.261719 L 224.070312 272.871094 L 232.722656 284.183594 L 232.054688 316.453125 L 252.683594 336.082031 L 264.660156 316.121094 L 277.632812 326.433594 L 282.625 321.777344 L 264.660156 325.101562 L 264.328125 342.070312 L 267.988281 363.363281 L 258.003906 353.714844 L 252.351562 340.738281 L 250.6875 358.703125 L 255.34375 394.300781 L 273.976562 417.257812 L 261.664062 433.226562 L 263.660156 453.519531 L 276.96875 474.148438 L 300.257812 538.023438 L 307.578125 542.015625 L 305.246094 586.265625 L 308.90625 591.585938 L 358.8125 609.550781 L 374.113281 625.855469 L 379.4375 636.5 L 394.074219 644.816406 L 410.042969 647.8125 L 416.699219 666.109375 L 430.007812 672.429688 L 449.96875 696.050781 L 468.597656 726.992188 L 467.265625 755.601562 L 477.582031 769.242188 L 613.652344 782.550781 L 625.628906 781.886719 L 630.949219 767.246094 L 620.636719 759.59375 L 620.96875 735.308594 L 626.957031 733.976562 L 638.933594 704.703125 L 646.253906 691.0625 L 664.886719 680.082031 L 654.570312 666.109375 L 642.925781 634.835938 L 643.59375 626.519531 L 643.59375 626.1875 L 634.945312 614.542969 L 608.328125 578.945312 L 556.761719 506.417969 L 484.902344 403.285156 L 444.3125 347.058594 L 405.054688 290.503906 L 450.300781 98.539062 Z M 453.296875 85.898438 " fill-opacity="1" fill-rule="evenodd"/></g></svg>